<?xml version="1.0" standalone="no"?>
<!DOCTYPE svg PUBLIC "-//W3C//DTD SVG 20010904//EN"
 "http://www.w3.org/TR/2001/REC-SVG-20010904/DTD/svg10.dtd">
<svg version="1.0" xmlns="http://www.w3.org/2000/svg"
 width="1536.000000pt" height="1024.000000pt" viewBox="0 0 1536.000000 1024.000000"
 preserveAspectRatio="xMidYMid meet">

<g transform="translate(0.000000,1024.000000) scale(0.100000,-0.100000)"
fill="#000000" stroke="none">
<path d="M7795 7273 c-578 -34 -937 -92 -1170 -187 -44 -19 -98 -39 -120 -46
-114 -36 -491 -205 -705 -317 -316 -166 -744 -411 -1020 -584 l-86 -54 -134 9
c-114 8 -161 6 -329 -13 -1005 -114 -1698 -263 -2166 -465 -151 -66 -400 -197
-450 -239 -38 -31 -46 -66 -16 -74 18 -4 19 -12 14 -103 -9 -159 34 -791 55
-812 4 -3 20 -8 35 -10 l29 -3 0 -110 c0 -60 -4 -110 -9 -111 -4 -1 -20 -5
-35 -8 -43 -10 -98 -63 -98 -96 0 -32 31 -75 69 -95 39 -20 247 -80 366 -105
179 -38 296 -51 520 -56 121 -3 239 -7 263 -10 l43 -5 -7 -50 c-6 -45 -5 -49
15 -49 18 0 21 6 21 48 l0 48 80 -9 c45 -5 92 -6 105 -3 31 8 33 34 4 44 -21
8 -21 13 -20 213 3 287 25 430 92 597 63 160 227 358 369 450 239 155 560 171
837 42 185 -86 306 -203 412 -400 86 -160 121 -290 151 -556 28 -249 32 -225
-41 -223 l-61 2 6 36 c17 99 17 250 2 346 -37 224 -110 368 -266 526 -95 96
-115 111 -210 158 -136 66 -199 82 -347 88 -93 4 -140 1 -200 -12 -154 -34
-296 -117 -414 -243 -79 -83 -114 -133 -161 -227 -81 -160 -114 -315 -105
-478 12 -202 69 -379 171 -527 73 -107 277 -290 324 -290 6 0 13 -3 15 -7 3
-5 -401 -8 -896 -8 -895 0 -902 0 -902 -20 0 -20 8 -20 5390 -23 2965 -1 5400
0 5413 3 12 3 22 12 22 20 0 8 -10 17 -22 20 -13 3 -339 4 -726 3 -386 -2
-702 -1 -702 2 0 3 28 21 63 40 36 21 105 78 168 140 119 118 173 199 222 339
17 47 31 87 31 88 1 0 22 4 47 8 41 6 47 5 52 -14 8 -32 -22 -37 562 80 257
52 262 52 430 51 94 -1 185 1 204 6 45 10 73 49 79 111 3 37 9 52 22 56 24 8
96 119 128 197 25 62 25 68 28 367 2 177 0 319 -6 340 -6 22 -28 55 -56 81
-25 25 -66 71 -90 102 -43 55 -44 58 -44 130 0 52 11 118 40 231 39 157 39
157 29 265 -21 228 -32 272 -68 291 -10 6 -99 15 -197 21 -222 13 -474 36
-653 60 l-137 18 -170 85 c-360 180 -1012 457 -1389 590 -488 171 -917 250
-1579 287 -157 9 -988 11 -1121 3z m1280 -67 c417 -32 670 -71 1008 -153 l148
-36 -33 -28 c-22 -18 -30 -31 -23 -37 6 -5 78 -33 160 -62 237 -83 419 -158
887 -366 241 -107 478 -210 528 -229 102 -40 214 -68 238 -61 38 11 147 15
185 7 73 -16 445 -51 627 -60 l175 -7 -50 -25 c-44 -21 -63 -24 -150 -23 -159
2 -331 30 -609 98 -89 22 -52 -6 50 -38 123 -38 462 -96 563 -96 25 0 33 -9
66 -71 20 -39 35 -72 33 -73 -1 -2 -63 1 -137 7 -169 12 -733 0 -756 -17 -9
-6 -13 -18 -10 -26 6 -16 154 -127 266 -201 l66 -43 -241 -254 c-132 -139
-263 -277 -289 -307 l-48 -53 -112 112 c-129 128 -220 188 -371 241 -145 52
-254 68 -416 62 -165 -7 -281 -36 -422 -106 -54 -26 -98 -46 -98 -44 0 3 8 17
18 31 74 106 162 322 202 494 25 109 25 213 -1 264 l-15 30 80 11 c98 13 181
41 301 98 99 47 122 67 131 111 11 57 -45 99 -311 232 -412 206 -856 356
-1260 427 -351 61 -625 80 -1170 80 -554 0 -729 -15 -1025 -90 -174 -44 -262
-75 -385 -140 -55 -29 -125 -60 -155 -70 -79 -26 -134 -55 -325 -173 -368
-228 -714 -463 -869 -590 l-78 -64 -45 44 -44 44 298 196 c352 231 492 319
668 420 72 41 186 108 255 148 164 96 197 111 242 118 86 11 55 43 -67 67
-137 28 -139 29 -65 53 261 85 670 141 1210 166 185 8 988 -4 1175 -18z m-106
-180 c403 -36 725 -96 1026 -193 319 -103 703 -273 911 -404 50 -32 64 -46 64
-66 0 -21 -13 -30 -92 -68 -94 -44 -184 -77 -248 -90 l-35 -8 39 43 c42 46 66
96 66 135 0 31 5 31 47 -1 25 -19 38 -23 45 -16 16 16 -1 32 -91 96 -186 130
-570 282 -947 375 -671 164 -1686 207 -2289 96 -354 -65 -710 -203 -1045 -403
-123 -74 -624 -407 -785 -522 -129 -92 -207 -134 -204 -111 3 35 722 538 1054
736 126 76 404 212 535 262 82 31 337 97 455 117 50 8 146 20 215 26 69 6 143
12 165 14 111 10 943 -3 1114 -18z m-2369 -35 c19 -6 55 -15 79 -21 l44 -12
-184 -103 c-310 -174 -441 -253 -687 -414 -131 -85 -308 -201 -395 -257 -88
-57 -175 -108 -195 -114 -40 -11 -316 -12 -422 -1 l-65 6 220 131 c655 391
1159 650 1495 770 76 28 66 26 110 15z m4190 -174 c305 -120 848 -359 1085
-477 84 -43 94 -50 60 -45 -80 12 -228 71 -674 270 -484 215 -707 309 -886
370 -125 44 -124 43 -106 55 16 10 276 -76 521 -173z m-2595 61 c-6 -29 -40
-225 -76 -435 l-64 -381 -108 -7 c-59 -4 -110 -5 -112 -3 -2 2 46 200 107 440
l111 437 71 3 c39 2 74 2 77 1 4 -2 1 -26 -6 -55z m172 48 c1 0 -2 -35 -7 -76
-5 -41 -21 -230 -36 -420 -14 -190 -28 -347 -30 -348 -1 -2 -48 -7 -103 -11
-78 -5 -101 -3 -101 6 0 21 138 829 145 851 4 10 20 11 67 6 35 -4 64 -7 65
-8z m-367 -7 c0 -6 -50 -206 -111 -443 l-111 -433 -182 -11 c-99 -7 -392 -26
-651 -42 -258 -16 -487 -31 -508 -34 -33 -4 -37 -2 -31 12 44 104 50 187 19
242 -28 46 -96 80 -180 88 l-67 7 119 76 c422 272 769 416 1188 493 111 21
196 32 385 49 82 8 130 7 130 -4z m780 -4 c259 -19 496 -46 685 -80 140 -25
411 -88 421 -98 4 -3 -46 -563 -51 -574 0 -1 -212 -14 -470 -28 -259 -14 -578
-32 -710 -40 -132 -8 -258 -15 -280 -15 l-40 0 35 425 35 425 80 0 c44 0 177
-7 295 -15z m1278 -230 c151 -52 286 -104 391 -152 l74 -33 -5 -68 c-3 -37
-18 -104 -33 -149 -23 -69 -31 -83 -49 -83 -11 -1 -142 -9 -291 -19 -148 -10
-272 -17 -274 -15 -3 3 51 564 55 564 1 0 60 -20 132 -45z m578 -272 c22 -51
9 -89 -49 -150 -69 -73 -82 -70 -52 11 13 35 30 94 36 130 11 59 14 64 31 55
11 -6 26 -26 34 -46z m-4299 -186 c49 -26 67 -60 65 -123 -2 -64 -19 -106 -45
-110 -10 -1 -33 -9 -50 -17 -92 -43 -292 -49 -344 -11 -20 15 -29 31 -31 57
-2 21 0 37 5 37 149 2 426 39 447 60 19 19 -2 20 -73 5 -79 -16 -358 -41 -367
-32 -11 10 26 65 63 95 67 53 98 62 203 59 66 -2 105 -8 127 -20z m6688 -67
c8 -12 39 -259 34 -265 -7 -6 -123 38 -143 54 -9 7 -16 17 -16 22 0 4 -13 31
-30 59 -33 56 -36 70 -17 70 7 0 44 15 82 34 79 39 82 40 90 26z m-2532 -53
c33 -63 34 -156 3 -278 -66 -264 -193 -518 -297 -595 -93 -68 -221 -228 -319
-398 -27 -47 -85 -166 -130 -263 -44 -98 -98 -206 -120 -240 -49 -74 -125
-145 -193 -180 -107 -54 -131 -56 -808 -60 l-627 -5 -15 49 c-9 26 -19 67 -22
90 l-6 41 38 6 c21 3 142 15 268 26 488 44 893 113 1175 200 88 27 142 53 130
62 -3 3 -57 1 -120 -3 -63 -4 -241 -12 -395 -18 -239 -10 -591 -30 -999 -57
l-99 -7 7 359 c3 197 14 467 24 599 l17 240 215 -3 c195 -3 480 -10 1220 -28
172 -4 252 -3 245 4 -10 10 -370 22 -1249 42 -231 6 -421 12 -423 14 -16 16
58 270 87 299 9 10 72 14 835 57 896 49 1263 71 1380 79 156 12 155 12 178
-32z m-4606 -43 c-9 -45 -8 -57 10 -92 l20 -41 -71 -5 c-212 -16 -241 -17
-231 -8 14 14 279 201 281 199 1 -1 -3 -25 -9 -53z m-1370 -23 c18 -5 135 -15
260 -22 l228 -13 -95 -18 c-88 -16 -242 -36 -805 -104 -384 -46 -807 -114
-1111 -180 -294 -62 -573 -151 -804 -254 -47 -21 -90 -40 -96 -42 -6 -2 -46
17 -88 41 l-78 44 28 15 c72 38 269 117 402 162 438 148 982 249 1972 368 104
13 150 14 187 3z m866 -46 l43 -45 -32 -31 c-18 -18 -31 -35 -29 -39 3 -4 -4
-15 -15 -25 -11 -10 -36 -43 -56 -73 l-36 -54 -488 4 c-269 2 -488 4 -487 5 1
0 47 12 102 26 126 32 187 59 240 108 48 44 70 54 145 64 30 4 123 20 205 36
83 17 192 36 244 44 52 8 96 17 99 20 11 11 24 3 65 -40z m2646 -69 c-16 -46
-32 -110 -35 -144 -4 -33 -10 -65 -13 -71 -5 -8 -264 -7 -912 4 -497 8 -909
15 -916 15 -10 0 25 95 52 142 9 14 75 20 490 48 264 17 665 44 890 59 226 16
424 29 441 30 l32 1 -29 -84z m-3404 -31 c-16 -14 -46 -34 -66 -45 -83 -44
-309 -90 -544 -110 -623 -54 -1112 -165 -1325 -300 -31 -19 -73 -33 -135 -45
-49 -8 -146 -31 -213 -50 -68 -19 -129 -35 -135 -35 -7 1 -31 18 -55 39 l-43
38 83 38 c403 185 1055 327 2048 444 96 12 222 27 280 35 58 7 112 14 120 15
9 0 2 -10 -15 -24z m8228 7 c58 -11 63 -16 72 -68 l6 -41 -351 -8 -352 -7 -66
46 c-37 25 -80 57 -97 71 l-30 26 385 -5 c212 -3 407 -9 433 -14z m-6931 -55
c-30 -32 -27 -61 9 -91 l31 -26 -326 0 c-241 0 -326 3 -326 12 0 6 18 35 41
65 33 44 43 52 55 42 9 -7 26 -9 47 -4 17 4 79 9 137 11 58 3 159 8 225 12 66
4 122 6 124 5 3 -2 -5 -13 -17 -26z m228 30 c0 -2 -11 -30 -24 -63 l-25 -59
-41 3 c-44 3 -93 23 -106 44 -4 7 8 25 32 45 35 29 45 33 102 33 34 0 62 -1
62 -3z m6908 -37 c1 0 2 -9 2 -20 0 -17 -7 -20 -50 -20 -41 0 -50 3 -50 18 0
9 -3 27 -6 40 l-7 23 54 -21 c30 -11 55 -20 57 -20z m-7621 24 c-3 -3 -12 -4
-19 -1 -8 3 -5 6 6 6 11 1 17 -2 13 -5z m7471 -248 l-23 -68 -110 4 c-89 4
-127 10 -197 35 -83 29 -302 142 -293 151 2 3 147 8 322 11 l318 6 3 -35 c2
-20 -6 -65 -20 -104z m131 73 c-11 -40 -24 -80 -29 -89 -9 -16 -57 -36 -66
-27 -2 2 3 23 11 47 8 23 15 61 15 85 0 51 4 55 51 55 l38 0 -20 -71z m-7958
21 l175 0 -18 -107 c-68 -409 -66 -783 6 -1213 13 -74 22 -136 21 -138 -1 -1
-42 -7 -91 -13 -128 -17 -141 -32 -19 -24 55 4 104 7 109 8 5 1 15 -25 23 -58
7 -33 16 -72 19 -87 l7 -28 -159 0 c-106 0 -154 -4 -144 -10 8 -5 81 -10 163
-10 l147 0 0 -80 0 -79 -163 -3 -164 -3 -17 190 c-10 105 -24 231 -33 280 -52
310 -222 602 -431 744 -155 105 -325 161 -512 168 -267 11 -463 -63 -651 -244
l-87 -84 -56 43 c-30 24 -55 47 -55 53 -2 16 161 169 224 210 197 129 390 181
640 172 341 -13 620 -156 815 -418 94 -127 182 -317 220 -476 15 -64 35 -72
27 -10 -9 61 -53 188 -102 293 -136 290 -357 492 -645 587 -135 45 -186 52
-365 51 -152 0 -181 -3 -270 -27 -188 -50 -366 -156 -507 -300 l-67 -69 -58
44 c-59 46 -103 73 -103 64 0 -7 114 -101 136 -114 15 -8 14 -14 -13 -53 -45
-65 -117 -213 -151 -309 -34 -97 -76 -269 -68 -278 9 -8 10 -5 45 121 18 65
49 160 69 210 37 91 121 246 145 266 9 7 27 0 64 -25 29 -19 55 -38 57 -43 3
-4 -17 -39 -45 -77 -64 -89 -111 -186 -144 -299 -39 -136 -53 -248 -61 -488
l-7 -219 -211 7 c-374 11 -514 23 -677 55 -187 36 -395 94 -429 119 -42 30
-38 56 14 80 40 20 47 21 73 8 71 -36 133 -42 438 -42 322 0 378 6 469 51 53
26 59 24 72 -23 9 -35 -2 -52 -49 -73 -70 -31 -178 -43 -322 -36 -360 17 -425
19 -425 8 0 -13 51 -19 285 -33 363 -21 545 17 545 116 0 55 -58 154 -135 230
-116 116 -252 168 -470 181 -152 9 -154 -9 -3 -26 185 -20 267 -49 379 -136
55 -42 119 -108 119 -122 0 -7 -684 -4 -706 3 -7 2 -23 28 -37 57 -52 111
-124 177 -194 178 -19 0 -23 5 -23 34 0 18 -3 54 -6 80 -5 35 -4 46 7 46 40 1
143 132 176 222 10 27 27 60 39 73 34 37 126 64 303 90 197 29 319 54 461 94
58 16 106 28 108 27 4 -5 -190 -97 -248 -118 -79 -27 -213 -55 -305 -63 -100
-8 -161 -23 -148 -36 6 -6 28 -6 59 0 27 5 87 13 134 16 102 8 240 42 341 84
81 34 323 165 404 220 64 43 182 157 202 195 14 27 14 31 -3 44 -16 12 -56 13
-229 9 -115 -4 -221 -9 -235 -13 -53 -14 -3 15 87 50 172 68 501 141 838 186
348 46 411 49 825 45 217 -3 474 -5 571 -5z m1829 -16 c437 -7 857 -13 933
-14 l139 0 -6 -57 c-23 -208 -39 -544 -41 -823 l-3 -325 -263 -17 c-285 -18
-879 -59 -1209 -83 -356 -27 -647 -56 -1012 -101 -76 -10 -141 -15 -144 -11
-10 10 -32 127 -56 295 -19 135 -22 201 -22 462 -1 284 1 317 27 483 15 98 31
185 34 193 5 13 58 15 417 13 226 -1 769 -7 1206 -15z m5603 -134 c121 -48
199 -63 314 -58 l101 5 13 -46 c7 -25 15 -52 17 -60 3 -12 -13 -13 -95 -8 -98
6 -226 38 -303 77 -58 29 -80 33 -80 16 0 -19 123 -78 222 -106 40 -12 119
-24 175 -27 l102 -6 32 -45 c18 -24 59 -73 92 -108 38 -41 54 -65 46 -68 -8
-2 -151 -23 -319 -46 -296 -40 -662 -97 -688 -105 -7 -3 -11 -9 -8 -13 3 -5
74 2 158 14 440 67 869 126 882 121 13 -5 15 -47 12 -308 l-3 -302 -59 -27
c-32 -15 -158 -104 -278 -197 l-220 -170 -190 -38 c-105 -20 -274 -52 -376
-71 -102 -18 -195 -36 -207 -39 l-23 -5 0 142 c0 325 -64 563 -206 766 -42 60
-45 67 -29 77 10 5 38 27 63 48 26 20 49 37 53 37 11 0 55 -72 102 -166 66
-131 109 -275 142 -476 9 -57 27 -48 20 10 -32 243 -105 452 -213 612 l-30 44
173 178 c96 98 228 238 295 312 l122 134 58 -34 c32 -18 92 -47 133 -64z m483
-94 c-1 -35 -3 -62 -6 -60 -2 3 -12 29 -21 59 -16 54 -14 62 17 64 6 1 10 -23
10 -63z m-11011 -28 c71 -41 90 -58 63 -58 -21 0 -182 -97 -208 -125 l-25 -27
30 8 c17 3 39 17 50 29 21 24 164 105 184 105 12 0 100 -61 100 -70 0 -3 -73
-29 -162 -58 l-163 -52 -50 45 c-27 26 -70 60 -96 77 -26 17 -45 35 -42 39 6
10 225 129 237 129 4 0 41 -19 82 -42z m9175 -32 c183 -51 338 -143 458 -271
93 -99 93 -95 17 -154 l-65 -52 -62 67 c-166 177 -373 264 -634 264 -225 0
-394 -56 -571 -189 -280 -211 -416 -526 -430 -997 l-6 -181 -1461 -6 c-803 -4
-1820 -10 -2258 -14 l-798 -6 0 80 0 80 643 6 c3178 34 3236 35 3318 50 120
23 194 64 260 144 76 92 95 125 206 346 179 359 296 522 481 664 105 82 302
167 446 193 28 5 121 7 206 5 129 -3 171 -8 250 -29z m-8015 -47 c-106 -109
-268 -204 -383 -225 -109 -19 -102 -22 -102 45 0 49 6 72 35 127 20 37 38 70
41 73 8 9 152 18 304 19 l144 2 -39 -41z m-469 -28 c-34 -53 -59 -145 -52
-185 l6 -33 -149 -18 c-163 -19 -237 -13 -311 26 -40 21 -117 85 -110 91 3 3
50 17 105 31 55 15 143 39 195 53 102 28 294 72 323 73 15 1 14 -4 -7 -38z
m-923 -114 c26 -21 47 -43 47 -49 0 -6 -25 -8 -60 -6 -45 2 -60 0 -60 -10 0
-7 -3 -11 -7 -9 -5 3 -6 35 -5 72 4 74 -4 74 85 2z m423 -130 c61 -32 157 -42
266 -28 55 7 107 15 116 17 14 5 15 4 2 -4 -16 -11 -139 -33 -325 -57 -193
-26 -375 -69 -375 -88 0 -5 8 -7 18 -5 29 8 -86 -216 -143 -277 -43 -46 -46
-48 -40 -22 3 16 26 74 51 130 46 102 73 194 94 322 l11 71 72 26 c107 40 105
40 167 -17 31 -29 69 -59 86 -68z m8927 94 c163 -43 318 -148 425 -290 178
-237 251 -469 252 -803 l0 -118 -40 0 -41 0 8 63 c31 240 -43 533 -177 707
-190 245 -404 360 -667 360 -166 0 -302 -41 -433 -130 -293 -198 -466 -550
-431 -876 6 -54 14 -112 17 -129 l5 -30 -50 3 -51 4 0 61 c0 184 35 405 90
570 112 333 366 558 703 623 98 19 288 11 390 -15z m-9303 -65 c0 -7 -3 -28
-6 -45 -6 -29 -9 -31 -50 -31 -46 0 -43 -3 -57 65 -3 11 -5 1 -6 -22 -1 -43
-21 -62 -21 -20 1 61 8 67 76 67 48 0 64 -4 64 -14z m9202 -81 c149 -31 270
-97 380 -207 131 -132 199 -249 244 -424 109 -426 -71 -857 -431 -1035 -105
-52 -200 -71 -355 -70 -245 0 -394 68 -560 257 -150 170 -217 344 -227 589 -4
99 -2 135 16 208 51 213 166 397 330 527 174 139 403 198 603 155z m-6852 -20
c119 -29 238 -95 335 -187 105 -99 166 -183 209 -286 107 -255 107 -521 -1
-776 -95 -226 -320 -414 -547 -455 -85 -16 -330 -14 -393 3 -277 74 -507 342
-569 665 -66 339 61 689 326 902 74 59 204 123 280 138 30 6 64 13 75 15 37 9
220 -3 285 -19z m-2370 -16 c0 -6 -5 -30 -11 -55 -11 -44 -12 -44 -55 -44
l-44 0 0 58 0 57 55 -3 c30 -2 55 -8 55 -13z m-40 -152 c-4 -12 -20 -47 -34
-77 l-25 -55 0 36 c-1 20 -4 56 -7 80 l-6 45 40 -4 c37 -4 40 -6 32 -25z
m7729 -311 c-9 -10 -279 -76 -406 -100 -234 -45 -678 -104 -1015 -134 l-88 -8
0 78 c0 59 3 78 14 78 7 0 69 4 137 10 228 18 761 49 1019 60 140 6 262 13
270 14 24 6 74 6 69 2z m-1539 -166 c0 -70 -2 -80 -17 -80 -10 0 -85 -7 -167
-15 -415 -42 -1390 -102 -2006 -125 -157 -5 -314 -12 -350 -15 l-66 -6 -10 51
c-6 27 -8 50 -5 50 3 0 60 7 126 15 461 58 970 100 2270 189 110 7 206 14 213
15 9 1 12 -21 12 -79z m5200 -17 c-50 -89 -54 -92 -114 -86 -49 5 -54 4 -79
-26 -29 -35 -42 -86 -33 -131 l6 -30 -100 0 c-55 0 -100 3 -99 8 0 4 79 68
175 142 164 126 263 194 273 185 2 -2 -11 -30 -29 -62z m-11264 -108 c19 -38
42 -76 51 -82 14 -11 4 -13 -60 -13 l-77 0 0 49 c0 26 -3 77 -6 112 l-7 64 32
-30 c18 -16 48 -61 67 -100z m6076 -37 c4 -32 14 -71 23 -87 8 -17 15 -32 15
-34 0 -2 -105 -4 -232 -5 -128 -1 -720 -7 -1316 -14 -595 -6 -1084 -9 -1086
-7 -12 13 -9 52 4 54 8 1 123 5 255 9 344 9 694 24 965 41 444 28 1274 91
1310 99 45 11 55 2 62 -56z m5068 -27 c0 -56 -15 -91 -40 -91 -17 0 -20 6 -20
46 0 55 14 84 40 84 17 0 20 -7 20 -39z m-10430 -44 l55 -2 -40 -13 c-70 -22
-325 -36 -510 -27 -93 5 -159 11 -146 13 13 2 25 11 28 20 4 15 30 17 281 14
152 -1 302 -3 332 -5z m2316 -257 c25 0 33 -6 45 -32 l14 -33 975 3 c536 1
1144 5 1350 7 206 3 887 8 1513 11 l1137 6 0 25 c0 23 3 24 51 22 41 -2 53 -7
59 -23 5 -12 18 -46 30 -77 39 -104 110 -210 202 -305 82 -85 198 -174 226
-174 6 0 13 -3 15 -7 3 -5 -1389 -8 -3094 -8 -1704 0 -3099 3 -3099 6 0 4 15
13 32 20 78 32 239 176 307 274 40 57 95 170 117 238 l18 59 36 -6 c19 -3 49
-6 66 -6z"/>
<path d="M11940 6050 c-892 -18 -1295 -31 -1305 -41 -10 -11 179 -9 1045 10
537 12 1068 13 1075 1 9 -15 35 -12 35 4 0 8 -7 16 -15 20 -30 11 -427 14
-835 6z"/>
<path d="M11311 5980 c-114 -24 -170 -92 -171 -206 0 -112 30 -165 122 -215
56 -29 72 -33 138 -33 77 0 151 24 193 62 62 56 83 207 40 287 -26 48 -58 80
-97 95 -41 15 -172 21 -225 10z m205 -30 c92 -35 137 -156 102 -272 -34 -116
-220 -163 -351 -90 -69 38 -102 95 -101 172 1 109 34 159 126 192 57 20 167
19 224 -2z"/>
<path d="M9865 5822 c-112 -37 -135 -54 -135 -97 0 -45 26 -64 150 -109 142
-51 184 -48 257 17 28 25 54 37 97 45 69 14 106 35 106 61 0 30 -26 43 -97 48
-47 4 -86 14 -127 34 -77 38 -143 38 -251 1z m209 -8 c26 -9 45 -18 42 -21 -7
-8 -296 -19 -296 -12 0 10 139 47 176 48 17 1 52 -6 78 -15z m241 -74 c0 -26
-80 -37 -312 -45 -221 -7 -221 -7 -233 15 -6 12 -10 23 -8 25 6 5 372 22 463
21 73 -1 90 -4 90 -16z m-187 -82 c-7 -19 -79 -58 -110 -58 -15 0 -60 13 -100
30 l-73 29 130 3 c72 2 136 5 143 6 8 1 12 -4 10 -10z"/>
<path d="M7450 5644 c-147 -32 -190 -57 -190 -113 0 -34 67 -95 132 -119 126
-46 201 -38 266 32 34 36 49 44 89 50 105 14 155 83 76 105 -21 6 -54 11 -73
11 -19 0 -57 11 -84 25 -57 29 -114 31 -216 9z m181 -16 c56 -16 48 -28 -18
-28 -32 0 -109 -5 -172 -10 -63 -6 -116 -8 -119 -6 -9 9 183 54 237 55 18 1
51 -4 72 -11z m207 -65 c-5 -27 -59 -40 -226 -52 -216 -16 -297 -15 -312 4 -7
9 -10 19 -6 23 8 7 374 38 484 41 55 1 63 -1 60 -16z m-194 -104 c-51 -56
-147 -63 -242 -17 l-47 23 125 5 c69 3 138 7 154 8 29 2 29 2 10 -19z"/>
<path d="M13019 4657 c-92 -28 -142 -57 -237 -137 -75 -64 -88 -92 -44 -98 25
-4 295 89 353 120 35 20 69 63 69 90 -1 45 -45 53 -141 25z m111 -25 c0 -16
-33 -53 -60 -67 -27 -14 -309 -115 -320 -115 -6 0 28 29 109 92 74 58 271 124
271 90z"/>
<path d="M12275 4259 c-159 -26 -293 -49 -297 -49 -5 0 -8 -4 -8 -10 0 -16 29
-13 331 35 156 25 306 48 332 52 26 3 50 10 53 14 12 20 -137 4 -411 -42z"/>
<path d="M10728 4835 c-280 -71 -481 -331 -495 -640 -6 -138 11 -226 68 -343
35 -72 58 -102 133 -177 141 -140 251 -188 431 -189 170 0 281 49 415 184 143
142 201 285 201 495 -1 377 -256 667 -601 681 -62 2 -115 -1 -152 -11z m233
-39 c171 -31 311 -138 397 -303 44 -84 82 -210 82 -270 0 -30 -3 -33 -29 -33
-27 0 -29 3 -35 49 -4 27 -15 74 -25 104 -19 54 -19 55 2 75 25 25 16 39 -15
25 -20 -9 -26 -4 -60 46 -20 31 -47 68 -58 82 -18 22 -20 29 -9 52 16 36 4 46
-23 20 l-21 -22 -32 24 c-17 14 -56 36 -87 49 -45 20 -57 30 -60 51 -3 30 -22
35 -26 7 -3 -16 -13 -18 -102 -18 -96 1 -99 1 -115 28 -17 30 -22 26 50 41 39
9 91 6 166 -7z m-241 -46 c0 -26 -6 -33 -42 -49 -24 -10 -63 -33 -88 -50 l-45
-30 -17 22 c-10 12 -18 25 -18 29 0 18 160 108 193 108 12 0 17 -8 17 -30z
m208 -58 c10 -7 7 -28 -13 -103 -60 -223 -67 -226 -106 -52 -15 68 -31 128
-35 134 -3 6 0 15 7 20 18 11 130 11 147 1z m-164 -62 c17 -57 7 -59 -13 -1
-11 33 -15 69 -7 60 2 -2 11 -29 20 -59z m-19 -20 c10 -30 28 -95 41 -145 24
-91 40 -115 79 -115 38 0 53 32 85 179 16 80 32 146 34 148 4 5 96 -40 133
-64 l23 -15 -48 -61 c-26 -34 -70 -89 -98 -123 -52 -62 -72 -100 -59 -112 10
-10 174 172 232 257 6 8 37 -26 76 -83 37 -55 39 -61 23 -70 -10 -6 -59 -37
-109 -68 -49 -32 -98 -60 -107 -63 -34 -11 -32 -74 2 -102 16 -13 157 -33 235
-33 l53 0 0 -32 c0 -33 -24 -136 -34 -145 -3 -3 -66 22 -141 56 -75 34 -146
61 -158 59 -27 -4 -35 -36 -10 -44 10 -4 80 -33 155 -66 l136 -59 -19 -33
c-24 -41 -86 -113 -91 -106 -3 3 -33 42 -68 88 -34 45 -85 98 -111 118 l-49
36 -30 -22 c-16 -12 -30 -28 -30 -36 0 -7 14 -82 31 -165 16 -83 28 -154 24
-157 -7 -7 -162 -9 -169 -2 -2 3 4 48 14 100 22 108 25 188 9 223 -9 20 -64
57 -84 57 -3 0 -44 -53 -92 -117 -47 -65 -88 -120 -90 -123 -5 -5 -43 40 -80
93 -32 46 -48 31 136 128 69 37 127 72 129 78 2 7 -10 11 -31 11 -23 0 -76
-21 -160 -65 l-126 -66 -10 38 c-6 21 -14 62 -17 91 l-7 52 55 0 c57 0 151 14
204 31 22 7 36 21 49 50 12 26 15 43 8 47 -5 4 -63 40 -129 81 -65 41 -121 76
-122 77 -5 4 73 118 91 132 12 10 19 5 42 -30 16 -24 53 -77 84 -118 44 -61
54 -81 52 -108 l-3 -33 51 28 c57 32 66 57 22 66 -21 4 -41 24 -77 74 -26 37
-65 89 -86 114 -36 44 -37 47 -20 62 29 26 126 77 133 69 3 -4 14 -32 24 -62z
m-246 9 c10 -29 8 -35 -22 -68 -18 -20 -43 -53 -56 -74 -20 -33 -27 -38 -50
-32 -14 4 -27 8 -29 10 -10 10 120 195 138 195 5 0 13 -14 19 -31z m143 -156
c33 -46 58 -86 56 -88 -3 -3 -24 24 -120 155 -18 25 -25 39 -15 31 10 -8 45
-52 79 -98z m469 55 c-36 -51 -81 -104 -81 -94 0 7 101 136 107 136 2 0 -9
-19 -26 -42z m-604 -165 c51 -35 72 -54 36 -34 -38 21 -187 112 -192 117 -12
13 105 -50 156 -83z m-140 32 c-3 -11 -12 -47 -21 -80 -9 -32 -16 -73 -16 -91
0 -28 -4 -32 -30 -36 -26 -4 -30 -1 -30 18 0 35 28 160 44 199 14 33 17 35 36
23 14 -8 20 -20 17 -33z m260 -153 c3 -7 3 -15 0 -18 -6 -6 -258 -36 -263 -31
-4 4 24 140 35 169 l10 28 107 -68 c59 -37 109 -73 111 -80z m698 62 c8 -32
15 -69 15 -82 l0 -23 -117 6 c-99 6 -121 10 -138 27 -17 17 -18 21 -5 29 134
84 216 125 222 114 4 -7 14 -39 23 -71z m-727 -114 c-18 -11 -177 -30 -255
-30 -29 0 -53 -4 -53 -10 0 -5 8 -10 19 -10 15 0 20 -10 26 -56 4 -31 13 -74
20 -95 13 -36 13 -40 -8 -54 -11 -8 -24 -11 -28 -7 -13 13 -39 114 -45 176
l-6 62 153 13 c85 7 159 14 164 16 21 7 29 4 13 -5z m823 -182 c-12 -45 -23
-83 -25 -85 -2 -3 -15 2 -28 11 l-24 16 17 67 c10 38 18 83 18 101 1 27 5 32
26 32 14 0 26 6 27 13 1 6 3 -7 5 -31 2 -24 -5 -79 -16 -124z m-929 -34 c-46
-25 -86 -44 -89 -41 -5 6 145 86 162 86 6 0 -27 -20 -73 -45z m279 -10 c10
-13 8 -40 -16 -160 -16 -79 -33 -144 -38 -144 -15 0 -148 72 -145 79 19 40
162 241 172 241 8 0 19 -7 27 -16z m301 -124 c88 -106 88 -95 3 -145 -77 -44
-82 -43 -89 22 -4 32 -19 95 -33 140 -23 69 -25 84 -13 98 12 14 15 14 33 -2
11 -10 56 -61 99 -113z m-2 50 c17 -22 30 -40 27 -40 -3 0 -22 21 -43 47 -21
26 -33 44 -27 40 6 -4 26 -25 43 -47z m-662 -14 c5 -12 30 -48 55 -78 l44 -54
-19 -24 -20 -24 -29 34 c-16 19 -47 62 -69 95 -35 53 -38 61 -22 67 32 12 49
8 60 -16z m955 16 c16 -7 14 -13 -18 -67 -36 -59 -92 -125 -107 -125 -4 0 -12
9 -18 20 -9 17 -4 28 30 72 23 28 48 64 56 80 15 28 25 32 57 20z m-578 -77
c-3 -26 -9 -45 -12 -42 -2 3 -1 26 2 52 4 25 10 44 12 41 3 -3 2 -26 -2 -51z
m-165 41 c0 -2 -8 -10 -17 -17 -16 -13 -17 -12 -4 4 13 16 21 21 21 13z m147
-128 c-3 -7 -5 -2 -5 12 0 14 2 19 5 13 2 -7 2 -19 0 -25z m-81 -98 c30 -10
34 -16 34 -46 0 -32 -1 -33 -27 -23 -50 19 -128 60 -162 86 l-34 26 23 17 c22
16 25 16 78 -16 30 -18 70 -38 88 -44z m71 48 c-3 -7 -5 -2 -5 12 0 14 2 19 5
13 2 -7 2 -19 0 -25z m438 12 c17 -19 17 -20 -6 -40 -29 -24 -157 -90 -175
-90 -9 0 -14 11 -14 28 0 24 8 31 69 60 39 19 75 40 82 48 15 19 23 18 44 -6z
m-226 -113 c6 -16 4 -25 -7 -31 -20 -11 -191 -11 -203 1 -5 5 -6 18 -3 30 6
21 11 22 106 22 93 0 100 -2 107 -22z"/>
<path d="M10778 4280 c-20 -11 -44 -30 -52 -42 -21 -30 -20 -95 2 -138 65
-130 265 -90 265 53 0 117 -111 182 -215 127z m122 -35 c61 -32 68 -99 16
-151 -40 -40 -80 -45 -119 -14 -98 77 -7 222 103 165z"/>
<path d="M3832 4834 c-121 -32 -251 -115 -322 -206 -52 -65 -111 -181 -139
-272 -59 -192 -26 -408 90 -581 89 -132 226 -234 365 -270 86 -22 236 -20 318
5 196 61 353 223 426 440 31 93 38 261 15 366 -21 96 -77 218 -137 300 -48 65
-147 145 -215 176 -121 54 -291 72 -401 42z m322 -55 c197 -66 342 -244 391
-481 22 -100 20 -108 -15 -108 -26 0 -30 4 -35 38 -4 20 -15 67 -24 104 -18
66 -18 67 3 87 24 25 15 38 -18 23 -21 -9 -25 -7 -46 31 -13 22 -39 58 -58 79
-32 35 -34 41 -23 65 15 34 0 50 -23 24 -18 -20 -19 -19 -70 14 -28 18 -68 39
-88 46 -31 10 -38 18 -40 43 -3 34 -21 39 -26 8 -3 -18 -11 -19 -100 -17 -95
2 -97 3 -114 31 l-18 29 33 7 c54 11 207 -2 271 -23z m-314 -23 c0 -30 -4 -36
-33 -45 -18 -6 -56 -27 -86 -46 -29 -19 -56 -35 -59 -35 -4 0 -15 11 -25 25
-17 24 -17 24 30 57 42 28 145 77 166 78 4 0 7 -15 7 -34z m39 -106 c0 -9 -4
-8 -9 5 -5 11 -9 27 -9 35 0 9 4 8 9 -5 5 -11 9 -27 9 -35z m175 39 c9 -9 -68
-272 -81 -276 -14 -5 -18 6 -49 143 -14 64 -28 123 -31 131 -5 13 6 15 75 12
44 -2 83 -7 86 -10z m-170 -146 c20 -76 42 -149 49 -163 16 -32 66 -39 89 -13
8 10 29 83 46 162 17 79 33 146 36 148 5 6 104 -44 133 -67 l22 -17 -51 -64
c-28 -35 -69 -84 -91 -109 -44 -50 -74 -106 -64 -117 9 -8 154 144 199 209 18
26 38 46 43 44 6 -1 32 -33 60 -71 46 -63 48 -69 31 -79 -10 -6 -58 -37 -107
-68 -50 -32 -96 -58 -103 -58 -30 0 -36 -78 -7 -104 19 -17 141 -36 239 -36
43 0 52 -3 52 -17 0 -24 -28 -155 -35 -161 -2 -3 -65 23 -139 57 -75 35 -145
61 -158 59 -28 -4 -36 -36 -11 -44 39 -14 269 -116 277 -124 10 -10 -80 -140
-97 -140 -3 0 -25 28 -50 63 -51 72 -120 142 -159 163 -25 13 -29 12 -56 -11
l-29 -25 22 -92 c12 -51 25 -126 29 -165 l7 -73 -86 0 c-83 0 -85 1 -80 23 36
153 44 252 25 301 -10 28 -64 60 -86 52 -7 -3 -53 -58 -100 -122 l-87 -118
-38 45 c-21 24 -44 56 -53 70 l-15 26 150 77 c84 44 148 83 146 89 -8 27 -52
14 -181 -51 -75 -38 -139 -66 -141 -62 -7 11 -35 133 -35 153 0 13 8 17 39 17
63 0 191 20 232 37 28 11 41 23 49 49 6 18 9 38 6 43 -3 5 -59 41 -123 82 -65
40 -122 76 -127 80 -14 12 73 139 95 139 4 0 43 -52 88 -115 58 -82 81 -123
81 -145 0 -16 2 -30 4 -30 2 0 25 9 50 20 33 14 46 25 46 40 0 15 -7 20 -25
20 -19 0 -38 20 -95 98 -38 53 -79 109 -90 123 -17 22 -18 28 -6 38 21 18 120
71 132 71 6 0 27 -62 48 -137z m-268 86 c16 -31 15 -32 -19 -68 -19 -20 -46
-54 -60 -76 -20 -33 -30 -41 -53 -40 -35 1 -34 11 8 79 27 44 98 136 105 136
1 0 10 -14 19 -31z m163 -186 c30 -43 47 -72 38 -64 -16 13 -123 159 -140 191
-17 31 50 -51 102 -127z m454 75 c-53 -71 -76 -98 -84 -98 -6 0 11 25 37 55
26 30 50 55 52 55 3 0 0 -6 -5 -12z m-605 -160 c34 -22 62 -42 62 -45 0 -3
-10 1 -22 9 -13 8 -60 36 -105 62 -46 26 -83 50 -83 52 0 7 79 -35 148 -78z
m-155 59 c16 -11 16 -16 4 -52 -8 -22 -20 -72 -26 -111 -11 -64 -15 -72 -36
-77 -14 -2 -26 -3 -28 -1 -15 15 44 254 62 254 4 0 15 -6 24 -13z m172 -100
c60 -35 110 -68 112 -73 8 -25 -19 -35 -123 -44 -60 -6 -120 -12 -133 -15 -23
-6 -23 -5 -17 42 9 64 35 153 44 153 4 0 57 -28 117 -63z m810 -85 l7 -43
-119 7 c-99 5 -121 10 -138 26 -17 17 -18 21 -5 29 8 5 60 36 115 68 l100 59
16 -51 c9 -29 20 -71 24 -95z m-785 -58 c-36 -7 -110 -16 -164 -20 -82 -6 -96
-9 -82 -19 10 -8 21 -37 27 -74 5 -33 14 -73 19 -87 11 -28 -1 -54 -25 -54
-18 0 -43 79 -54 166 -5 38 -8 69 -7 70 5 3 280 31 311 31 34 1 30 -2 -25 -13z
m885 -81 c-4 -32 -16 -85 -26 -120 -19 -61 -20 -62 -45 -51 -19 9 -24 17 -19
32 3 12 14 58 23 103 16 83 17 84 66 92 4 0 5 -25 1 -56z m-950 -128 c-44 -25
-87 -45 -95 -44 -16 0 148 88 165 88 6 0 -26 -20 -70 -44z m675 30 c14 -8 21
-14 15 -14 -5 0 -21 6 -35 14 -14 8 -20 14 -15 14 6 0 21 -6 35 -14z m-390
-40 c10 -12 7 -42 -16 -160 -15 -80 -32 -145 -36 -145 -16 0 -124 58 -137 74
-11 13 -7 22 22 58 19 24 55 76 81 116 46 73 63 84 86 57z m326 -157 l47 -61
-24 -20 c-34 -27 -118 -69 -128 -63 -4 3 -11 38 -14 78 -3 41 -17 103 -31 141
-21 55 -23 67 -11 67 8 0 15 6 15 13 1 15 82 -71 146 -155z m-5 47 c18 -25 16
-25 -10 5 -17 19 -36 44 -42 55 -12 24 21 -14 52 -60z m-674 -2 c17 -27 43
-59 57 -72 30 -28 31 -38 11 -65 -15 -19 -16 -19 -45 9 -17 16 -49 58 -72 93
-34 52 -39 65 -27 73 28 17 46 8 76 -38z m941 38 c18 -11 -3 -53 -66 -133 -49
-63 -63 -70 -79 -35 -9 19 -4 29 33 71 23 27 48 62 55 78 11 28 32 35 57 19z
m-749 -46 c-18 -25 -40 -51 -48 -58 -8 -7 5 14 28 46 51 68 67 77 20 12z m178
-12 c-3 -10 -5 -4 -5 12 0 17 2 24 5 18 2 -7 2 -21 0 -30z m-10 -55 c-3 -7 -5
-2 -5 12 0 14 2 19 5 13 2 -7 2 -19 0 -25z m-13 -62 c-3 -21 -8 -35 -11 -32
-2 2 -1 20 3 40 3 21 8 35 11 32 2 -2 1 -20 -3 -40z m-169 -41 c32 -19 73 -39
91 -45 28 -10 34 -16 34 -41 0 -16 -4 -29 -10 -29 -32 0 -154 62 -209 107 -4
2 28 43 34 43 2 0 28 -16 60 -35z m585 -26 c-31 -24 -169 -94 -174 -88 -3 2
-7 16 -11 30 -6 23 -2 27 37 42 24 9 63 30 88 47 l45 30 20 -21 20 -20 -25
-20z m-219 -66 c14 -37 0 -43 -108 -43 -94 0 -109 6 -98 40 5 17 17 20 98 23
51 1 93 4 95 5 1 1 7 -10 13 -25z"/>
<path d="M3898 4279 c-66 -34 -86 -110 -49 -179 67 -127 250 -95 267 47 14
112 -113 188 -218 132z m150 -55 c26 -29 30 -89 7 -120 -19 -28 -69 -48 -101
-40 -40 10 -74 53 -74 93 0 46 15 72 53 89 42 18 87 10 115 -22z"/>
</g>
</svg>
