<?xml version="1.0" standalone="no"?>
<!DOCTYPE svg PUBLIC "-//W3C//DTD SVG 20010904//EN"
 "http://www.w3.org/TR/2001/REC-SVG-20010904/DTD/svg10.dtd">
<svg version="1.0" xmlns="http://www.w3.org/2000/svg"
 width="1024.000000pt" height="1024.000000pt" viewBox="0 0 1024.000000 1024.000000"
 preserveAspectRatio="xMidYMid meet">

<g transform="translate(0.000000,1024.000000) scale(0.100000,-0.100000)"
fill="#000000" stroke="none">
<path d="M5550 6723 c-205 -6 -459 -37 -605 -74 -214 -55 -825 -356 -1345
-664 -173 -102 -190 -108 -345 -119 -829 -61 -1603 -173 -2070 -301 -134 -37
-298 -103 -363 -147 -71 -49 -76 -63 -80 -227 l-4 -146 -48 -50 -48 -50 -10
-100 c-8 -89 -7 -104 10 -137 10 -21 25 -38 33 -38 10 0 15 -10 15 -29 0 -15
3 -55 6 -87 l6 -59 -34 -15 c-45 -20 -51 -68 -13 -98 71 -56 201 -110 335
-140 218 -48 275 -55 394 -48 116 6 130 13 121 54 -3 12 -6 107 -6 210 -1 219
13 291 83 425 32 63 64 103 133 172 152 153 290 214 495 222 143 6 233 -11
348 -67 144 -69 253 -167 332 -300 82 -136 113 -263 130 -533 5 -87 12 -163
15 -168 4 -5 789 -9 2041 -9 l2034 0 10 26 c6 14 10 74 10 134 0 434 141 705
445 851 99 48 192 69 310 69 123 0 213 -21 320 -74 189 -94 313 -237 383 -441
26 -76 39 -175 48 -342 4 -78 11 -137 18 -142 12 -10 316 34 610 89 177 32
197 42 236 111 14 25 37 60 51 79 60 78 63 93 67 273 5 221 2 241 -59 332 -28
41 -55 89 -60 107 -5 18 -9 91 -10 163 -1 228 -12 351 -35 382 -50 66 -11 58
-634 133 -211 26 -181 14 -465 178 -472 272 -852 441 -1175 522 -270 67 -461
81 -1085 78 -253 -1 -498 -4 -545 -5z m1255 -77 c497 -59 858 -198 1560 -601
248 -143 216 -132 483 -165 537 -66 514 -62 539 -84 15 -14 25 -37 29 -67 l6
-46 -125 -5 c-99 -5 -133 -10 -164 -26 -35 -18 -69 -21 -403 -32 -201 -6 -405
-13 -455 -16 -146 -7 -579 -23 -581 -21 -2 2 32 59 165 276 57 95 65 143 32
197 -27 44 -57 65 -301 209 -280 166 -362 208 -462 235 -229 62 -427 73 -1143
67 -761 -6 -923 -24 -1150 -124 -248 -109 -820 -418 -1053 -569 -116 -74 -232
-164 -213 -164 6 0 -1 -24 -14 -52 -13 -29 -32 -85 -42 -125 -14 -61 -20 -73
-37 -73 -21 0 -52 -2 -371 -21 -252 -14 -306 -29 -85 -23 96 2 240 7 320 10
l145 7 2 -289 c1 -159 7 -353 15 -432 8 -79 11 -145 8 -147 -3 -1 -77 -6 -165
-9 -88 -4 -185 -9 -215 -12 l-55 -5 -18 102 c-28 168 -104 321 -217 442 -227
243 -546 325 -859 221 -140 -46 -289 -151 -374 -262 l-46 -59 -208 5 c-223 5
-382 -9 -550 -48 -46 -11 -86 -20 -88 -20 -3 0 16 20 40 45 25 24 45 49 45 55
0 6 77 10 223 10 289 0 281 -3 432 143 127 123 136 143 89 188 -21 20 -38 24
-102 27 -72 4 -407 -26 -551 -49 -35 -5 -65 -8 -68 -6 -8 8 94 66 167 95 181
72 371 120 707 181 405 73 924 139 1378 175 105 9 219 18 254 21 57 5 63 4 51
-10 -28 -34 28 -6 206 103 329 201 1012 554 1167 603 40 12 97 35 127 50 108
55 358 92 745 109 302 13 1026 5 1180 -14z m-978 -153 c-18 -58 -139 -495
-162 -584 l-27 -106 -387 -7 c-212 -4 -426 -9 -476 -11 -49 -2 -301 -7 -560
-10 l-470 -6 80 52 c261 171 968 544 1130 598 146 48 311 67 650 77 116 4 212
8 214 10 10 9 13 3 8 -13z m180 -10 c-3 -16 -29 -173 -58 -349 l-53 -321 -90
-6 c-50 -3 -93 -3 -95 -1 -2 2 8 47 23 101 15 54 56 206 92 338 36 132 67 246
70 253 2 8 23 12 60 12 56 0 56 0 51 -27z m813 3 c139 -15 188 -24 298 -53 46
-12 61 -20 58 -30 -3 -8 -16 -142 -28 -297 l-23 -283 -410 -6 c-225 -4 -487
-7 -581 -7 l-170 0 57 348 c32 191 58 349 58 351 2 9 616 -10 741 -23z m760
-294 c124 -73 233 -141 242 -149 36 -32 32 -66 -17 -147 l-46 -76 -286 0 -285
0 6 53 c3 28 13 140 21 247 8 107 18 212 21 233 l6 37 56 -32 c32 -17 158 -92
282 -166z m42 -438 l87 -7 -36 -66 c-20 -36 -39 -69 -43 -74 -6 -7 -315 -21
-730 -32 -547 -14 -1199 -35 -1238 -40 -38 -4 -43 -3 -38 13 2 9 14 53 26 97
12 44 26 84 31 90 6 6 279 12 727 15 394 3 809 6 922 8 113 1 244 -1 292 -4z
m-2029 -95 c-12 -45 -23 -89 -23 -100 0 -10 -4 -20 -8 -23 -5 -3 -204 -12
-443 -20 -239 -9 -474 -18 -524 -21 -49 -2 -180 -7 -290 -10 -110 -3 -229 -8
-265 -10 -36 -2 -158 -7 -272 -11 -203 -7 -208 -6 -208 13 0 26 37 138 61 185
l19 38 203 1 c111 1 229 3 262 4 33 2 353 8 710 15 358 7 652 14 654 16 2 2
37 4 76 4 l72 0 -24 -81z m3827 -168 l0 -129 -107 -4 -108 -5 -47 51 c-53 57
-59 85 -32 142 23 49 46 58 164 65 58 3 111 6 118 7 9 2 12 -30 12 -127z
m-360 68 c-36 -81 -23 -125 63 -216 l50 -53 128 0 127 0 7 -31 c4 -17 5 -32 3
-34 -1 -1 -91 -10 -198 -19 -267 -23 -753 -81 -772 -92 -5 -3 -26 10 -46 28
-89 81 -209 146 -329 180 -112 32 -306 32 -416 0 -236 -67 -421 -226 -522
-445 -40 -89 -62 -172 -77 -299 l-12 -98 -71 0 c-38 0 -80 -3 -93 -6 -20 -6
-18 1 24 82 145 278 241 434 333 544 25 30 120 132 212 226 91 94 174 184 184
201 l18 31 216 6 c119 4 340 11 491 16 151 5 367 12 480 16 113 4 207 8 209
10 13 12 9 -8 -9 -47z m-1460 1 c0 -5 -85 -97 -188 -203 -232 -237 -340 -385
-463 -628 -36 -73 -42 -79 -62 -72 -27 10 -751 6 -1057 -5 -124 -5 -227 -7
-229 -5 -2 1 -6 153 -8 335 -3 234 0 361 9 428 l13 95 120 6 c179 10 427 18
855 29 756 19 875 22 879 26 9 9 131 3 131 -6z m-2052 -107 c-11 -61 -18 -553
-9 -697 4 -69 2 -110 -4 -112 -5 -2 -208 -10 -450 -19 -242 -8 -680 -25 -973
-36 -293 -12 -535 -20 -537 -17 -3 3 -12 99 -21 214 -15 203 -17 625 -2 639 3
4 127 11 275 16 265 9 1268 46 1393 52 36 2 126 4 201 5 l136 2 -9 -47z
m-4058 -134 c12 -8 -3 -26 -80 -99 -52 -50 -109 -97 -127 -105 -25 -12 -75
-15 -252 -15 l-221 0 0 79 0 79 33 6 c99 17 508 62 597 65 19 0 42 -4 50 -10z
m8010 -181 l45 -63 3 -117 4 -118 -64 0 c-96 1 -678 -53 -678 -62 0 -12 92
-10 285 7 94 7 235 17 314 21 l144 7 -5 -76 c-5 -70 -8 -81 -45 -129 -22 -30
-50 -72 -61 -95 -12 -22 -29 -44 -39 -48 -10 -4 -171 -33 -358 -65 l-340 -57
-7 136 c-12 248 -68 418 -188 570 l-38 48 116 12 c129 13 739 78 787 84 79 10
79 10 125 -55z m-8028 -184 l67 -7 -23 -46 c-13 -25 -36 -84 -52 -131 -27 -82
-28 -91 -29 -297 l0 -213 -97 0 c-167 0 -425 58 -552 123 l-81 42 227 5 c167
4 230 8 240 18 8 8 13 37 13 71 0 47 -7 72 -39 134 -21 43 -44 77 -50 77 -56
-1 -400 11 -403 14 -2 2 -1 33 3 70 l7 66 51 15 c49 15 242 50 316 58 62 7
333 7 402 1z m-373 -354 c18 -39 30 -77 27 -85 -4 -11 -23 -15 -73 -16 -37 0
-118 -2 -179 -5 -129 -6 -124 -11 -124 109 l0 67 159 0 158 0 32 -70z m5801
35 c0 -21 -55 -107 -84 -133 -42 -36 -57 -39 -236 -46 -166 -7 -949 -10 -955
-4 -4 3 -23 155 -21 159 1 0 163 6 361 13 378 14 935 20 935 11z m-1350 -57
c0 -18 3 -57 6 -85 l7 -53 -744 0 c-409 0 -853 -3 -986 -6 l-242 -6 -6 39 c-3
21 -8 45 -9 54 -3 14 17 17 158 23 127 5 1234 46 1581 58 39 2 107 4 153 6
l82 3 0 -33z m-2030 -55 c0 -10 3 -34 6 -55 l6 -36 -83 -6 c-46 -3 -148 -8
-226 -12 l-143 -6 0 61 0 61 163 3 c89 1 188 4 220 5 48 2 57 -1 57 -15z
m3538 -165 l-3 -93 -1980 0 -1980 0 -3 52 -3 52 203 3 c112 2 560 5 997 6 436
1 797 4 801 7 4 3 338 5 741 6 835 1 926 5 984 36 33 18 57 22 143 22 l103 1
-3 -92z"/>
<path d="M3310 5689 c-397 -32 -969 -100 -1425 -169 -394 -60 -691 -117 -624
-119 23 -1 190 23 589 84 480 74 956 133 1413 176 130 13 237 27 237 31 0 9
-43 9 -190 -3z"/>
<path d="M2110 5186 c-320 -68 -541 -341 -540 -668 1 -178 61 -334 181 -462
75 -81 138 -126 227 -162 l57 -24 -205 0 c-113 0 -439 -3 -725 -8 -480 -6
-501 -7 -270 -12 360 -8 8172 -9 8530 -1 l300 6 -535 7 c-294 5 -647 8 -784 8
l-248 0 93 47 c175 87 306 251 355 443 21 85 22 236 1 320 -60 236 -253 432
-487 496 -45 13 -100 18 -180 17 -98 0 -127 -4 -195 -27 -109 -37 -175 -77
-257 -154 -231 -219 -281 -555 -123 -838 67 -119 194 -232 320 -283 l50 -20
-2615 0 c-1438 1 -2604 4 -2590 8 89 28 223 121 290 204 111 135 168 306 156
469 -7 107 -22 159 -73 267 -79 165 -232 297 -408 351 -90 27 -237 34 -325 16z
m284 -72 c211 -54 387 -235 442 -454 24 -97 15 -263 -19 -352 -136 -353 -528
-503 -862 -330 -79 41 -194 149 -237 223 -73 125 -104 309 -74 449 46 216 217
400 431 461 79 23 236 24 319 3z m5641 1 c103 -26 203 -83 281 -160 121 -120
173 -235 181 -405 6 -124 -8 -196 -64 -310 -73 -150 -250 -287 -415 -320 -333
-67 -640 128 -724 460 -23 89 -15 250 15 340 66 191 236 348 428 394 78 19
225 20 298 1z"/>
<path d="M2161 4959 c-132 -22 -262 -125 -322 -254 -57 -121 -49 -290 18 -405
94 -159 282 -250 457 -220 293 51 455 366 326 635 -39 80 -78 125 -151 174
-94 63 -216 89 -328 70z m242 -97 c173 -85 254 -275 198 -460 -37 -121 -127
-210 -250 -246 -197 -58 -411 57 -467 252 -25 84 -16 211 20 280 73 143 194
215 353 209 67 -3 92 -9 146 -35z"/>
<path d="M7810 4959 c-211 -36 -360 -218 -360 -439 0 -177 92 -327 246 -401
222 -105 490 -8 597 218 31 65 32 73 32 188 0 104 -4 127 -23 170 -89 192
-288 299 -492 264z m237 -93 c165 -75 257 -271 209 -442 -83 -291 -443 -380
-645 -159 -69 76 -95 146 -95 255 0 106 26 178 91 250 84 93 174 132 298 127
62 -3 94 -10 142 -31z"/>
</g>
</svg>
